<svg xmlns="http://www.w3.org/2000/svg" viewBox="0 0 138.49 164.05"><defs><style>.cls-1{fill:#4a186e;}.cls-2{fill:#f386a1;}.cls-3{fill:#fff;}.cls-4{fill:#ffef00;}.cls-5{fill:#fce600;}</style></defs><title>movies</title><g id="Layer_2" data-name="Layer 2"><g id="rokuKids"><g id="movies"><g id="popcorn"><path class="cls-1" d="M21.21,25.38c.52-1.45,1.1-2.82,1.48-4.25a5.73,5.73,0,0,1,2.81-3.59,3.38,3.38,0,0,0,1.4-1.74,7.26,7.26,0,0,1,3.17-4l.21-.13c4.82-3.09,4.83-3.1,10.39-1.64a15.22,15.22,0,0,1,2.11.92c-.07-.57-.11-1-.17-1.45-.27-2,.64-3.18,2.64-3.34,1-.08,1.56-.33,1.64-1.51a2.52,2.52,0,0,1,1.24-1.6c3.19-1.85,6.76-1.25,10.19-1.29.94,0,1.89.88,2.84,1.35.47.24,1,.72,1.41.66,3-.45,5.11,1.19,7.29,2.79.59.44,1.21.85,1.87,1.3,1.15-1.24,2.32-2.34,4.08-2.34a3.18,3.18,0,0,1,1,.07,3.12,3.12,0,0,0,3.69-.77s.07-.07.1-.07c1.79-.09,3-.81,3-2.78A21.23,21.23,0,0,1,88,.28,28.38,28.38,0,0,1,94.47.1c1.06.09,2.06.89,3.11,1.32a5.61,5.61,0,0,0,2.14.7,7.43,7.43,0,0,1,4.94,1.62,14.83,14.83,0,0,0,1.91,1.37,5.27,5.27,0,0,1,3,4.88c.09,1.36.39,2.7.59,4,3.23-.66,6.28,1,8.06,4.43a15.49,15.49,0,0,1,3.35-.37,8.3,8.3,0,0,1,4.69,2,2.46,2.46,0,0,0,2.66.6,4.61,4.61,0,0,1,5.8,1.67c1.22,1.61,2.9,3,3.05,5.11a34.7,34.7,0,0,1-.49,5.81c0,.26-.23.55-.17.78.39,1.47.85,2.92,1.24,4.4a2.81,2.81,0,0,1-.7,3,4.45,4.45,0,0,0-1.3,3.57q-.71,53.84-1.46,107.68c0,2-.31,2.29-2.27,2.46L77.5,159.93,30.94,164c-1.66.15-2.06-.19-2.43-2q-11.06-56-22.1-112.09a2.81,2.81,0,0,0-1.24-1.78A56.64,56.64,0,0,1,.42,43.43a.88.88,0,0,1-.25-.55c0-3.48-.83-7.11,1.33-10.24a8.36,8.36,0,0,1,3-2.29A14.26,14.26,0,0,1,8.23,29c1.49-.32,1.35-1.72,1.95-2.58,1-1.38,1.93-2.48,3.74-2.37s3.38.18,5,.42A9.53,9.53,0,0,1,21.21,25.38ZM49.49,42.19c1.41.21,2.57.8,2.89,2.3s-.28,2.59-1.94,3.64a1.46,1.46,0,0,0-.55,1.14,1.49,1.49,0,0,0,.74,1.08,4.31,4.31,0,0,0,4.42-.81,3,3,0,0,1,2.86-.5,7.6,7.6,0,0,0,3.6-.21c1.21-.34,1.29-1.11.43-2a4.62,4.62,0,0,1-1-2.94c-.22-2.16,1.48-4,.8-6.17-.06-.18.18-.45.23-.69s.19-.64.07-.82A9.45,9.45,0,0,1,61,29.59c-.6-.16-1.11-.25-1.59-.42-1.34-.46-1.83-.14-2.28,1.18a9.06,9.06,0,0,1-1.44,2.55c-.29.36-1,.39-1.49.57L53.9,33a7.6,7.6,0,0,0,.81-.54c1.43-1.22,2.25-2.7,1.54-4.6-.44-1.16-.1-1.63,1-1.93a5.66,5.66,0,0,0,3.9-2.83c1.44-2.87-.23-6.51-3.52-7.7a9.29,9.29,0,0,0-6,.16,3.08,3.08,0,0,1-2.08-.09c-4-2.08-8.2-.2-9.18,4.08a3.38,3.38,0,0,1-.92,1.31c-.82.88-1.74,1.68-2.52,2.6S35.8,25.19,35.14,26c-.11.14-.51.1-.77.06s-.63-.22-.95-.26c-1.92-.21-.55-1.47-.61-2.18-.09-1,.67-.63,1.21-.41a1.58,1.58,0,0,0,2.3-.68c.34-.58,1.14-.88,1.66-1.39s1.68-1.36,1.58-1.88a3.12,3.12,0,0,1,1-2.91,1.17,1.17,0,0,0,.14-1.82,6.47,6.47,0,0,0-1.92-1.67,6.47,6.47,0,0,0-8.28,2.73c-1.08,2-2.06,3.72-4.18,5-3.17,1.94-3.3,5.75-.93,8.56a2.37,2.37,0,0,1,.39,1.66c-.23,1.73-.08,3.3,1.34,4.53a1.42,1.42,0,0,1,.25.49l-.24.27c-.63-.46-1.24-1-1.9-1.38A7.72,7.72,0,0,0,23,33.66c-.83-.18-1.26-.46-1.3-1.33a8.67,8.67,0,0,0-.27-1.59,5.41,5.41,0,0,0-4.78-4.2c-2.66-.2-4.77,1.73-5,4.68-.11,1.19-.57,1.49-1.74,1.48a7.68,7.68,0,0,0-3.47.65,6.69,6.69,0,0,0-3.08,7.91,6.44,6.44,0,0,0,6.43,4.68A2.59,2.59,0,0,1,12.2,47.2a5.06,5.06,0,0,0,4.2,2.26A6.55,6.55,0,0,0,21,47.72,14.93,14.93,0,0,0,22,49.1a1.9,1.9,0,0,0,2.78.19c.65-.67,1.06-.55,1.76-.08,1.87,1.26,3.89.2,4.14-2.05a3.66,3.66,0,0,0-1.3-2.95,4.27,4.27,0,0,1-.92-1.63,3.1,3.1,0,0,0-3.14-2.43,38.41,38.41,0,0,1-3.87,0v-.55c.51,0,1,0,1.51.08s.91.29,1.3.19c2.41-.6,4,.2,4.7,2.51a1.91,1.91,0,0,0,.35.79,5.69,5.69,0,0,1,1.76,5.53,4.93,4.93,0,0,0,1.18-.27,18.75,18.75,0,0,0,2.48-1.6,2.48,2.48,0,0,1,2.95-.5,1.89,1.89,0,0,0,1.61-.1C41,45.06,42.12,43,41.26,40.93c-.29-.73-.42-1.52-.66-2.27-.61-1.92.21-3.66.71-5.42.1-.34.55-.59.85-.86.69-.6,1.4-1.18,2.33-2l-2-.29a15.12,15.12,0,0,1,1.84-.51c1.16-.36,1.7.14,2,1.29l-1,.5c-3.18,1.62-4.84,5.83-3.43,8.87.45,1,.86,2.24,2.42,1.33.14-.09.4,0,.6,0,1.14.06,2.28.09,3.41.19a5.41,5.41,0,0,1,1.25.42c-1.52.06-3,.66-4.59.08s-2.78.47-3.26,2a1.69,1.69,0,0,1-.56.89A2.19,2.19,0,0,0,40,47.87a2.58,2.58,0,0,0,2.71,1.76,2,2,0,0,1,2.17,1,2.74,2.74,0,0,0,3.2.58,1.8,1.8,0,0,0,1.15-2.11c-.23-.87.07-1.12.81-1.43a2.56,2.56,0,0,0,.73-4.5A12.3,12.3,0,0,0,49.49,42.19Zm-40,7c.08.56.12.92.19,1.28,3.82,19.39,7.69,38.77,11.44,58.17.66,3.42,1.92,6.77,1.62,10.35a1.36,1.36,0,0,0,.18.56,5.26,5.26,0,0,1,.63,1.4c.1,1,.63,1.13,1.51,1.08q17.73-1.16,35.48-2.26l70.11-4.44c1.64-.1,1.66-.09,1.68-1.78q.45-32.68.88-65.39c0-.34-.06-.69-.09-1.07a3.17,3.17,0,0,1-4.23-.6,1.2,1.2,0,0,0-1.83-.15,2.11,2.11,0,0,1-1.69.4c-1.21-.48-2.31-1.25-3.48-1.83a2.43,2.43,0,0,0-1.5-.37c-2.31.6-4.59,1.33-6.89,2a7.76,7.76,0,0,0-2.41.65,25.74,25.74,0,0,0-3.2,3.07,3,3,0,0,1-3,1c-1.22-.28-2.46-.45-3.65-.79a1.74,1.74,0,0,0-2.38,1c-1,1.86-2.12,2.05-4,1.05-.31-.17-.83,0-1.25.09-.69.1-1.46.49-2,.3a44.18,44.18,0,0,1-4.19-1.78,5.69,5.69,0,0,1-6.59,1.41,2.57,2.57,0,0,0-1.42.08,19.36,19.36,0,0,1-3.8,1.08,37.3,37.3,0,0,1-5.26-.36l-8.17-.72c-1-.09-2.09-.18-3.13-.32-.86-.12-1.58-.19-2.08.8A1.81,1.81,0,0,1,55.6,54a24.78,24.78,0,0,1-4.69-.83,2.88,2.88,0,0,0-2.1-.11,4.75,4.75,0,0,1-4.29-.22,28,28,0,0,0-3.66-1.35,5.32,5.32,0,0,1-1.28-.7,2.92,2.92,0,0,0-3.86.55A3.56,3.56,0,0,1,34,52.61a8,8,0,0,1-2.67-.06c-1.83-.23-3.67-.86-5.45-.72-1.57.12-3,.64-4.45-.39,0,0-.08,0-.13,0-2.06.09-4.12.12-6.18.29a5,5,0,0,1-4.8-1.94A3.9,3.9,0,0,0,9.5,49.19Zm18.51,95c.37,1.6.71,2.9,1,4.21q1.14,5.67,2.23,11.35c.14.75.33,1.14,1.26,1q18.26-1.64,36.53-3.21,30.78-2.7,61.56-5.38c.94-.08,1.27-.35,1.28-1.33.06-4.3.23-8.6.31-12.91a22.85,22.85,0,0,0-.27-2.74ZM24.2,123.53c.06.53.09.82.14,1.1,1,5.63,2.11,11.24,3.09,16.88.19,1,.6,1.22,1.56,1.13q16.47-1.47,33-2.88l64.91-5.6,5.26-.49v-17ZM96.55,34.24l-.25.33a6.37,6.37,0,0,0-1.9-.44,4,4,0,0,0-2.37.71c-1,1-1.54,1.06-2.61.1a4,4,0,0,0-5.35-.23A4.93,4.93,0,0,0,83,40.62a2.24,2.24,0,0,0,1.2.78,19.56,19.56,0,0,1,2.83.74,3,3,0,0,1,.8,4.59,5.72,5.72,0,0,1-.83.66c1.61,2.24,3.18,2.68,5.46,1.8a3.09,3.09,0,0,1,1.61.11c.72.15,1.45.62,2.12.53a4.57,4.57,0,0,0,2.27-1.08c.25-.22-.1-1.09-.12-1.66a7.08,7.08,0,0,1,0-2.06,2.64,2.64,0,0,0-.77-2.7,7,7,0,0,1-1.16-1.69c-.8-1.62,0-3.09.35-4.65a5.68,5.68,0,0,1,3.11-4.06,4.84,4.84,0,0,0,1.41-1.47c.48-.67.83-1.43,1.29-2.1a1.47,1.47,0,0,0,0-2.11,7,7,0,0,1-2-4.16,1.35,1.35,0,0,0-.72-1c-.3-.09-.79.25-1.13.49A17.7,17.7,0,0,1,97,22.82a4.13,4.13,0,0,1-1.51.18l-.1-.44c.52-.29,1-.59,1.57-.86a3.62,3.62,0,0,0,2.1-3.14c.14-1.82.15-1.78,2-1.82,2.18-.06,4.11-.69,5.14-2.83a5.3,5.3,0,0,0-.76-5.81c-1.69-2.29-4.07-2.94-6.77-3a2.79,2.79,0,0,1-1.9-.59,6.93,6.93,0,0,0-6.44-2.13A3.87,3.87,0,0,0,87,5a2.22,2.22,0,0,1-2,1.59,3.61,3.61,0,0,0-3.38,2.82,7.59,7.59,0,0,1-.74,1.54c-.47-.4-.8-.71-1.16-1-1.37-1-2.84-1.58-4.52-.84a4.22,4.22,0,0,0-2.49,3.47A5.58,5.58,0,0,0,75,17.91a3,3,0,0,1,1.25,2.26c.23,2.91,3.93,5.64,6.41,3.95.68-.47,1.33-.25,1.82.58-.34.08-.6.16-.87.2a2.46,2.46,0,0,0-2.18,1.74,24.46,24.46,0,0,0-1.13,4.29,5.6,5.6,0,0,0,1.62,4.12c3.27-2.58,4.54-2.64,8.3-.61a1.36,1.36,0,0,0,1.19-.2,4.16,4.16,0,0,1,3.71-.85A4.92,4.92,0,0,1,96.55,34.24Zm16.84,5.9c.92-.23,1.89-.19,2.4-.67.76-.7,1.15-.5,1.86,0a2.56,2.56,0,0,0,4.07-1.9,3.59,3.59,0,0,0-1.33-3.18,3.27,3.27,0,0,1-.84-1.4,2.84,2.84,0,0,0-3.94-2.32,3.67,3.67,0,0,1-.89.06c.37-3.82-2.71-6.36-6.42-5.58-3,.64-4.53,2.78-5.66,5.4a5,5,0,0,1-1.4,1.72,20.66,20.66,0,0,0-2.56,1.89c-1.63,2-2.75,5.58-.07,7.66.75.58.68,1.27.43,2.11a3.82,3.82,0,0,0,4.29,4.77,1.2,1.2,0,0,1,.49-.06c2.32.49,3.69-1,4.58-2.65a3,3,0,0,1,3.36-1.76c2.13.17,4.39-1.59,5.29-3.47.13-.27,0-.67,0-1a3.05,3.05,0,0,0-1,.2A2.33,2.33,0,0,1,113.39,40.14Zm22.36-10.66a24,24,0,0,0-1.28-3.65,4,4,0,0,0-6.42-1.17c-.88.79-1.31.52-2-.23a8.93,8.93,0,0,0-2.75-2.24,4.43,4.43,0,0,0-5.17.92A6,6,0,0,0,116.26,29c.07.32.6.52.91.78a19.19,19.19,0,0,1,2.59,2.13c.63.71.88,1.76,1.47,2.52a4.09,4.09,0,0,1,0,5.49,1,1,0,0,0,0,.92,4.22,4.22,0,0,0,4.83,1.54,2.15,2.15,0,0,1,2.48.52,3.42,3.42,0,0,0,3.43,1c1.28-.39,2.81-.74,2.82-2.61,0-.22.28-.42.34-.65a5.53,5.53,0,0,0,.51-2.2,11.55,11.55,0,0,0-1.21-3.34,2,2,0,0,1-.09-2.26A26.25,26.25,0,0,0,135.75,29.48Zm-76.67-3a22.46,22.46,0,0,0,2.44,1.31c.93.36,1.22.87.85,1.81a6.19,6.19,0,0,0,4.45,8.48c4.44,1.12,7.19-1.06,8.3-4.76a2.25,2.25,0,0,1,1.68-1.85,5.5,5.5,0,0,0,3.73-5.21,1,1,0,0,0-.32-.73c-1-.7-2.12-1.25-3-2a4.33,4.33,0,0,1-1.32-2,8.13,8.13,0,0,0-1.66-3.12,17.93,17.93,0,0,1-1.85-3.16c-.18-.33-.34-.68-.52-1-.23.13-.34.15-.36.21-1,3.44-3.51,4.76-6.87,5a1.89,1.89,0,0,0-1.24,1.25,7.57,7.57,0,0,1-3.1,4.83C59.92,25.76,59.63,26,59.08,26.47Zm23.31,15a13.17,13.17,0,0,1-.49-3c.13-1.74-1-2.86-1.74-4.15a3,3,0,0,0-.82-.72,8.26,8.26,0,0,0-1.45-1,1.23,1.23,0,0,0-1.06.1c-.3.23-.37.72-.59,1.07A19.14,19.14,0,0,1,74.13,37a15.31,15.31,0,0,1-2.72,1.72c-1.71,1.12-3.59.63-5.42.62a1,1,0,0,1-.77-.34c-.94-1.25-1.55-.47-2,.35a6.82,6.82,0,0,0,.58,8,6.25,6.25,0,0,0,7.58,2,1.89,1.89,0,0,1,2.18.21,5.1,5.1,0,0,0,5.58.74c.33-.15.53-.56.79-.85l.29-.6a5,5,0,0,0,.6,1.2,2.94,2.94,0,0,0,3.4.78,2.09,2.09,0,0,0,1.1-2.62c0-.22.43-.69.76-.84,2.23-1.06,2.59-3.49.53-4.77-.8-.5-2-.33-3.06-.43A8.34,8.34,0,0,1,81.76,42a2.91,2.91,0,0,0-4,2c-.08.28-.23.54-.47,1.11C77.19,42.08,78.87,41,82.39,41.51ZM58.56,12.05a14.75,14.75,0,0,0,.84,2.88c.32.61,1.16,1,1.56,1.54,1.25,1.84,2.94,2.19,5,1.81A5.11,5.11,0,0,0,69.17,10a7.93,7.93,0,0,0-6.81-3.14,3.47,3.47,0,0,1-2.21-.77,6.81,6.81,0,0,0-6.73-1.88A3.69,3.69,0,0,0,50.51,6.6a2.28,2.28,0,0,1-2.07,1.65,4,4,0,0,0-3.65,3.92c0,.45.58,1.1,1.06,1.36a11.14,11.14,0,0,0,2,.5,6.68,6.68,0,0,0,4.12.41,7.2,7.2,0,0,1,2.81-.37c1.45.21,1.67-.31,1.19-1.57Zm42.4,6a4.53,4.53,0,0,1,.07,1.37c-.75,2.82.6,4.9,2.67,6.41a1.24,1.24,0,0,0,1.09.09c1.73-1,3.42-2.14,5.36-3.36l5.18,4.09a18.67,18.67,0,0,1,.78-3.79,5.16,5.16,0,0,0-1.94-5.77,3,3,0,0,0-3.88.33c-.94,1.11-1.52.88-2.49.06-.74-.61-1.54-1.5-2.86-.87A37.93,37.93,0,0,1,101,18.08ZM23.46,29.19c-.18.83-.33,1.69-.54,2.53s.31,1.17.94,1.3a1,1,0,0,0,.9-.41A2.4,2.4,0,0,0,23.46,29.19Z"/><path class="cls-2" d="M9.5,49.19a3.9,3.9,0,0,1,.82.61,5,5,0,0,0,4.8,1.94c2.06-.17,4.12-.2,6.18-.29.05,0,.1,0,.13,0,1.42,1,2.88.51,4.45.39,1.78-.14,3.62.49,5.45.72a8,8,0,0,0,2.67.06,3.56,3.56,0,0,0,1.72-1.25,2.92,2.92,0,0,1,3.86-.55,5.32,5.32,0,0,0,1.28.7,28,28,0,0,1,3.66,1.35,4.75,4.75,0,0,0,4.29.22,2.88,2.88,0,0,1,2.1.11A24.78,24.78,0,0,0,55.6,54,1.81,1.81,0,0,0,57,53.11c.5-1,1.22-.92,2.08-.8,1,.14,2.09.23,3.13.32l8.17.72a37.3,37.3,0,0,0,5.26.36,19.36,19.36,0,0,0,3.8-1.08,2.57,2.57,0,0,1,1.42-.08,5.69,5.69,0,0,0,6.59-1.41,44.18,44.18,0,0,0,4.19,1.78c.59.19,1.36-.2,2-.3.42-.06.94-.26,1.25-.09,1.88,1,3,.81,4-1.05a1.74,1.74,0,0,1,2.38-1c1.19.34,2.43.51,3.65.79a3,3,0,0,0,3-1,25.74,25.74,0,0,1,3.2-3.07,7.76,7.76,0,0,1,2.41-.65c2.3-.67,4.58-1.4,6.89-2a2.43,2.43,0,0,1,1.5.37c1.17.58,2.27,1.35,3.48,1.83a2.11,2.11,0,0,0,1.69-.4,1.2,1.2,0,0,1,1.83.15,3.17,3.17,0,0,0,4.23.6c0,.38.09.73.09,1.07q-.43,32.7-.88,65.39c0,1.69,0,1.68-1.68,1.78l-70.11,4.44Q42.81,120.88,25.07,122c-.88,0-1.41-.06-1.51-1.08a5.26,5.26,0,0,0-.63-1.4,1.36,1.36,0,0,1-.18-.56c.3-3.58-1-6.93-1.62-10.35-3.75-19.4-7.62-38.78-11.44-58.17C9.62,50.11,9.58,49.75,9.5,49.19ZM36.18,81.94a11.94,11.94,0,0,0,11.44-8.15A11.33,11.33,0,0,0,39.5,59.6c-6.65-1.84-13.56,2-15.08,8.41C22.72,75.18,28.47,82,36.18,81.94Zm70.28-3.32a12.81,12.81,0,0,0,8.82-3.23A10.23,10.23,0,0,0,116,60.53a13.06,13.06,0,0,0-18.7,0,10.21,10.21,0,0,0,.08,14.17A12.49,12.49,0,0,0,106.46,78.62Zm-40.69.68-.3.08a3.48,3.48,0,0,0,0,1.21,7,7,0,0,0,10.28,3.48,18,18,0,0,0,5.36-5.6,3.71,3.71,0,0,0,.22-1.29L81,77.06c-.25.32-.48.64-.74.94a39.93,39.93,0,0,1-3.34,3.65c-3.78,3.26-7.62,2.71-10.47-1.38Z"/><path class="cls-2" d="M28,144.18l103.88-9a22.85,22.85,0,0,1,.27,2.74c-.08,4.31-.25,8.61-.31,12.91,0,1-.34,1.25-1.28,1.33Q99.79,154.86,69,157.58q-18.26,1.6-36.53,3.21c-.93.09-1.12-.3-1.26-1q-1.08-5.69-2.23-11.35C28.72,147.08,28.38,145.78,28,144.18Z"/><path class="cls-3" d="M24.2,123.53l107.91-6.83v17l-5.26.49-64.91,5.6Q45.46,141.19,29,142.64c-1,.09-1.37-.09-1.56-1.13-1-5.64-2.05-11.25-3.09-16.88C24.29,124.35,24.26,124.06,24.2,123.53ZM54,139.67c.82-.11,1.65-.16,2.46-.35,2.61-.61,4.66-4.45,3.56-6.83a11.77,11.77,0,0,0-2.19-3.28A5.36,5.36,0,0,0,55,127.55a20.81,20.81,0,0,0-4.6.56s-.07,0-.1.07a5.51,5.51,0,0,0-2,5.3c.15.65.35,1.28.5,1.92A5.45,5.45,0,0,0,54,139.67Zm32.66-4.75c2.33,0,4.26-.59,5.51-2.84a5.29,5.29,0,0,0-.59-6.33,4.35,4.35,0,0,0-.76-1c-1-.71-2-1.76-3.08-1.9a19.32,19.32,0,0,0-4.73.52c-.07,0-.13.09-.19.15A5.4,5.4,0,0,0,81,129c.12.56.3,1.12.43,1.68A5.41,5.41,0,0,0,86.7,134.92Zm17.91-14.57c-.47.84-1.06,1.39-1,1.86.39,2.91.9,5.81,1.44,8.69a1.1,1.1,0,0,0,.83.69c.59,0,.71-.41.6-1.06-.31-1.78-.48-3.59-.67-5.1,2,1.35,4.2,2.81,6.39,4.2,1,.6,1.67.27,1.88-.85a3.66,3.66,0,0,0-.15-1.57c-.66-2.31-1.34-4.62-2.08-6.9-.11-.33-.59-.53-.89-.79a7.14,7.14,0,0,0-.44,1.25c0,.2.19.44.25.68.63,2.17,1.25,4.34,1.88,6.51l-.36.17C109.28,126.22,106.13,124.44,104.61,120.35Zm-7.21,7.58c1.17-.62,2.18-1.07,3.12-1.66a3,3,0,0,0-.2-5.37c-2.45-1.4-5.33-.3-6.59,2.55-.34.76-.68,1.58.51,2,.18.07.29.46.35.73.22,1,.4,1.94.59,2.92s.34,2,.62,2.91c.1.36.51.63.78.95a5.33,5.33,0,0,0,.52-1.21,3.51,3.51,0,0,0-.19-1.08l-.28-1.79c2.12.73,4,1.4,5.86,2a2.88,2.88,0,0,0,1.08-.07,5,5,0,0,0-.6-1,2.2,2.2,0,0,0-.88-.43C100.6,128.94,99.11,128.47,97.4,127.93Zm-33.83,5.22a4.64,4.64,0,0,1,1-.27,4,4,0,0,0,3-1.69,4,4,0,0,0,.81-4.5c-.7-1.59-2.2-2.08-3.77-2.2a3.64,3.64,0,0,0-3.47,3.83c.13.94.32,1.88.37,2.83,0,.49-.44,1.24-.23,1.46,1,1.07.62,2.43,1,3.6.13.39.64.64,1,1,.2-.39.58-.78.57-1.16A24.5,24.5,0,0,0,63.57,133.15Zm-22,3.09,1.32-.23a5.05,5.05,0,0,0,3.92-4.39c0-2.2-1.33-3.58-3.82-4a3.71,3.71,0,0,0-3.82,3.75c.15,1.36.07,2.73.1,4.1a1.1,1.1,0,0,0,.07.36c.33,1.16.61,2.33,1,3.45.14.39.63.66,1,1,.2-.39.56-.78.56-1.16A26.37,26.37,0,0,0,41.6,136.24Zm38.95-2.85-.34-.25c-.83.42-1.65.86-2.49,1.26-1.93.92-4.65.37-5.53-1.09a5.52,5.52,0,0,1,.76-5.92c1.52-1.52,3-1.31,3.94.94.27-.69.69-1.25.55-1.51A3.19,3.19,0,0,0,76,125.3a4.45,4.45,0,0,0-4.42,1.6,7,7,0,0,0-.73,6.63A4.1,4.1,0,0,0,74,136.11a7.5,7.5,0,0,0,6.09-1.45C80.39,134.44,80.4,133.82,80.55,133.39Z"/><path class="cls-4" d="M49.53,42.21a5.9,5.9,0,0,0-1.25-.41c-1.13-.1-2.27-.13-3.41-.19-.2,0-.46-.1-.6,0-1.56.91-2-.37-2.42-1.33-1.41-3,.25-7.25,3.43-8.87l1-.5c-.28-1.15-.82-1.65-2-1.29a15.12,15.12,0,0,0-1.84.51l2,.29c-.93.79-1.64,1.37-2.33,2-.3.27-.75.52-.85.86-.5,1.76-1.32,3.5-.71,5.42.24.75.37,1.54.66,2.27.86,2.11-.3,4.13-1.93,5.32a1.89,1.89,0,0,1-1.61.1,2.48,2.48,0,0,0-2.95.5,18.75,18.75,0,0,1-2.48,1.6,4.93,4.93,0,0,1-1.18.27,5.69,5.69,0,0,0-1.76-5.53A1.91,1.91,0,0,1,29,42.4c-.74-2.31-2.29-3.11-4.7-2.51-.39.1-.86-.15-1.3-.19s-1-.06-1.51-.08v.55a38.41,38.41,0,0,0,3.87,0,3.1,3.1,0,0,1,3.14,2.43,4.27,4.27,0,0,0,.92,1.63,3.66,3.66,0,0,1,1.3,2.95c-.25,2.25-2.27,3.31-4.14,2.05-.7-.47-1.11-.59-1.76.08A1.9,1.9,0,0,1,22,49.1,14.93,14.93,0,0,1,21,47.72a6.55,6.55,0,0,1-4.58,1.74,5.06,5.06,0,0,1-4.2-2.26,2.59,2.59,0,0,0-2.46-1.26,6.44,6.44,0,0,1-6.43-4.68,6.69,6.69,0,0,1,3.08-7.91,7.68,7.68,0,0,1,3.47-.65c1.17,0,1.63-.29,1.74-1.48.27-2.95,2.38-4.88,5-4.68a5.41,5.41,0,0,1,4.78,4.2,8.67,8.67,0,0,1,.27,1.59c0,.87.47,1.15,1.3,1.33a7.72,7.72,0,0,1,2.23,1.1c.66.41,1.27.92,1.9,1.38l.24-.27a1.42,1.42,0,0,0-.25-.49c-1.42-1.23-1.57-2.8-1.34-4.53a2.37,2.37,0,0,0-.39-1.66c-2.37-2.81-2.24-6.62.93-8.56,2.12-1.29,3.1-3.05,4.18-5a6.47,6.47,0,0,1,8.28-2.73,6.47,6.47,0,0,1,1.92,1.67,1.17,1.17,0,0,1-.14,1.82,3.12,3.12,0,0,0-1,2.91c.1.52-1,1.29-1.58,1.88s-1.32.81-1.66,1.39a1.58,1.58,0,0,1-2.3.68c-.54-.22-1.3-.57-1.21.41.06.71-1.31,2,.61,2.18.32,0,.63.21.95.26s.66.08.77-.06c.66-.84,1.19-1.78,1.88-2.59s1.7-1.72,2.52-2.6a3.38,3.38,0,0,0,.92-1.31c1-4.28,5.22-6.16,9.18-4.08a3.08,3.08,0,0,0,2.08.09,9.29,9.29,0,0,1,6-.16c3.29,1.19,5,4.83,3.52,7.7a5.66,5.66,0,0,1-3.9,2.83c-1.15.3-1.49.77-1,1.93.71,1.9-.11,3.38-1.54,4.6a7.6,7.6,0,0,1-.81.54l.28.49c.51-.18,1.2-.21,1.49-.57a9.06,9.06,0,0,0,1.44-2.55c.45-1.32.94-1.64,2.28-1.18.48.17,1,.26,1.59.42a9.45,9.45,0,0,0,1.09,6.58c.12.18,0,.55-.07.82s-.29.51-.23.69c.68,2.17-1,4-.8,6.17a4.62,4.62,0,0,0,1,2.94c.86.93.78,1.7-.43,2a7.6,7.6,0,0,1-3.6.21,3,3,0,0,0-2.86.5,4.31,4.31,0,0,1-4.42.81,1.49,1.49,0,0,1-.74-1.08,1.46,1.46,0,0,1,.55-1.14c1.66-1.05,2.29-2,1.94-3.64s-1.48-2.09-2.89-2.3ZM36,36.34c.57-.85,1.17-1.72,1.72-2.62.21-.35.52-1,.39-1.14a3.28,3.28,0,0,0-1.46-1c-.24-.07-.72.42-1,.74-.81,1-1.56,2-2.36,3a4.4,4.4,0,0,1-.75.62Zm18.28,5.07a10.09,10.09,0,0,1,1-1.8c.6-.72.49-1.12-.33-1.48-.34-.14-.58-.49-.92-.6s-.73,0-.83.14c-.53.89-1,1.83-1.51,2.84ZM17,39.66c0-.92,0-1.7,0-2.46-.07-1-.91-.68-1.44-.68s-1.2.26-1.23.48a25,25,0,0,0-.05,3.14ZM47.64,22.83a21.32,21.32,0,0,0,1,2,1,1,0,0,0,.77.33,3.17,3.17,0,0,0,1.29-.38c.28-.15.43-.52.64-.79-.92-.45-.21-2.36-1.79-2.12A6.66,6.66,0,0,0,47.64,22.83ZM26.17,44.88,25,44.3l-.65,1.12,1,.76Z"/><path class="cls-4" d="M96.55,34.24a4.92,4.92,0,0,0-1.45-.85,4.16,4.16,0,0,0-3.71.85,1.36,1.36,0,0,1-1.19.2c-3.76-2-5-2-8.3.61a5.6,5.6,0,0,1-1.62-4.12,24.46,24.46,0,0,1,1.13-4.29,2.46,2.46,0,0,1,2.18-1.74c.27,0,.53-.12.87-.2-.49-.83-1.14-1.05-1.82-.58-2.48,1.69-6.18-1-6.41-3.95A3,3,0,0,0,75,17.91a5.58,5.58,0,0,1-2.28-5.34A4.22,4.22,0,0,1,75.19,9.1c1.68-.74,3.15-.18,4.52.84.36.26.69.57,1.16,1a7.59,7.59,0,0,0,.74-1.54A3.61,3.61,0,0,1,85,6.55,2.22,2.22,0,0,0,87,5a3.87,3.87,0,0,1,3.38-2.54,6.93,6.93,0,0,1,6.44,2.13,2.79,2.79,0,0,0,1.9.59c2.7,0,5.08.67,6.77,3a5.3,5.3,0,0,1,.76,5.81c-1,2.14-3,2.77-5.14,2.83-1.83,0-1.84,0-2,1.82A3.62,3.62,0,0,1,97,21.7c-.53.27-1,.57-1.57.86l.1.44A4.13,4.13,0,0,0,97,22.82a17.7,17.7,0,0,0,1.67-1.25c.34-.24.83-.58,1.13-.49a1.35,1.35,0,0,1,.72,1,7,7,0,0,0,2,4.16,1.47,1.47,0,0,1,0,2.11c-.46.67-.81,1.43-1.29,2.1a4.84,4.84,0,0,1-1.41,1.47A5.68,5.68,0,0,0,96.81,36c-.32,1.56-1.15,3-.35,4.65a7,7,0,0,0,1.16,1.69,2.64,2.64,0,0,1,.77,2.7,7.08,7.08,0,0,0,0,2.06c0,.57.37,1.44.12,1.66a4.57,4.57,0,0,1-2.27,1.08c-.67.09-1.4-.38-2.12-.53a3.09,3.09,0,0,0-1.61-.11c-2.28.88-3.85.44-5.46-1.8a5.72,5.72,0,0,0,.83-.66,3,3,0,0,0-.8-4.59,19.56,19.56,0,0,0-2.83-.74,2.24,2.24,0,0,1-1.2-.78,4.93,4.93,0,0,1,1.07-5.91,4,4,0,0,1,5.35.23c1.07,1,1.64.86,2.61-.1a4,4,0,0,1,2.37-.71,6.37,6.37,0,0,1,1.9.44Zm-2.66-5.62a16.61,16.61,0,0,1-.73-2.1c-.14-.73-.43-.91-1.1-.65a9.08,9.08,0,0,0-1.19.34c-.24.12-.56.52-.51.69.31,1,.72,2,1.14,3.05ZM92.43,10.79a16.49,16.49,0,0,0,.37,2,1.28,1.28,0,0,0,.68.77,3.31,3.31,0,0,0,1.47,0c.24,0,.59-.38.59-.59a10.38,10.38,0,0,0-.26-2.07.77.77,0,0,0-.6-.46C93.92,10.51,93.16,10.67,92.43,10.79ZM89.88,41.9l2,1c1.09-2.08,1-2.33-.62-3ZM81.47,14.64,80.1,16.88,82,17.94l1.1-1.86Zm7,2.94c-.25-2.18-2.12-.9-3.14-1.51ZM88,24.88H85.08C86,26,86.77,26,88,24.88Z"/><path class="cls-4" d="M113.39,40.14a2.33,2.33,0,0,0,2.68-.22,3.05,3.05,0,0,1,1-.2c0,.34.13.74,0,1-.9,1.88-3.16,3.64-5.29,3.47A3,3,0,0,0,108.4,46c-.89,1.63-2.26,3.14-4.58,2.65a1.2,1.2,0,0,0-.49.06A3.82,3.82,0,0,1,99,43.9c.25-.84.32-1.53-.43-2.11-2.68-2.08-1.56-5.7.07-7.66a20.66,20.66,0,0,1,2.56-1.89,5,5,0,0,0,1.4-1.72c1.13-2.62,2.62-4.76,5.66-5.4,3.71-.78,6.79,1.76,6.42,5.58a3.67,3.67,0,0,0,.89-.06A2.84,2.84,0,0,1,119.55,33a3.27,3.27,0,0,0,.84,1.4,3.59,3.59,0,0,1,1.33,3.18,2.56,2.56,0,0,1-4.07,1.9c-.71-.47-1.1-.67-1.86,0C115.28,40,114.31,39.91,113.39,40.14Zm-7.61-1.59c.48,0,.92-.13,1.19,0,1.4.79,1.73-.11,2.12-1.16.29-.79.16-1.09-.7-1.25-2.19-.4-2.18-.43-2.61,1.79A3.8,3.8,0,0,0,105.78,38.55Zm11.47-3.62a4,4,0,0,0-1.33-.19.9.9,0,0,0-.45.79c.11.3.5.51.82.81Z"/><path class="cls-4" d="M135.75,29.48a26.25,26.25,0,0,1-1.42,3.33,2,2,0,0,0,.09,2.26,11.55,11.55,0,0,1,1.21,3.34,5.53,5.53,0,0,1-.51,2.2c-.06.23-.33.43-.34.65,0,1.87-1.54,2.22-2.82,2.61a3.42,3.42,0,0,1-3.43-1,2.15,2.15,0,0,0-2.48-.52,4.22,4.22,0,0,1-4.83-1.54,1,1,0,0,1,0-.92,4.09,4.09,0,0,0,0-5.49c-.59-.76-.84-1.81-1.47-2.52a19.19,19.19,0,0,0-2.59-2.13c-.31-.26-.84-.46-.91-.78a6,6,0,0,1,1.87-5.86,4.43,4.43,0,0,1,5.17-.92,8.93,8.93,0,0,1,2.75,2.24c.69.75,1.12,1,2,.23a4,4,0,0,1,6.42,1.17A24,24,0,0,1,135.75,29.48Zm-8.87,4.95c.64-.83,1.55-1.51,1.55-2.17s-.92-1.34-1.49-2.09l-2.19,2.47Z"/><path class="cls-5" d="M59.08,26.47c.55-.45.84-.71,1.16-.95a7.57,7.57,0,0,0,3.1-4.83,1.89,1.89,0,0,1,1.24-1.25c3.36-.26,5.87-1.58,6.87-5,0-.06.13-.08.36-.21.18.35.34.7.52,1a17.93,17.93,0,0,0,1.85,3.16,8.13,8.13,0,0,1,1.66,3.12,4.33,4.33,0,0,0,1.32,2c.93.78,2,1.33,3,2a1,1,0,0,1,.32.73,5.5,5.5,0,0,1-3.73,5.21,2.25,2.25,0,0,0-1.68,1.85c-1.11,3.7-3.86,5.88-8.3,4.76a6.19,6.19,0,0,1-4.45-8.48c.37-.94.08-1.45-.85-1.81A22.46,22.46,0,0,1,59.08,26.47Zm11.57,1A9,9,0,0,0,70.81,25c-.06-.3-1-.4-1.59-.59a1.48,1.48,0,0,1-.33-.17c-.68-.46-1-.25-1.22.53a8.8,8.8,0,0,0-.41,1.15,1,1,0,0,0,.42.81C68.57,27,69.5,27.2,70.65,27.48Z"/><path class="cls-5" d="M82.39,41.51c-3.52-.54-5.2.57-5.09,3.56.24-.57.39-.83.47-1.11a2.91,2.91,0,0,1,4-2,8.34,8.34,0,0,0,1.75.13c1,.1,2.26-.07,3.06.43,2.06,1.28,1.7,3.71-.53,4.77-.33.15-.81.62-.76.84a2.09,2.09,0,0,1-1.1,2.62,2.94,2.94,0,0,1-3.4-.78,5,5,0,0,1-.6-1.2l-.29.6c-.26.29-.46.7-.79.85a5.1,5.1,0,0,1-5.58-.74,1.89,1.89,0,0,0-2.18-.21,6.25,6.25,0,0,1-7.58-2,6.82,6.82,0,0,1-.58-8c.49-.82,1.1-1.6,2-.35a1,1,0,0,0,.77.34c1.83,0,3.71.5,5.42-.62A15.31,15.31,0,0,0,74.13,37a19.14,19.14,0,0,0,2.11-3.14c.22-.35.29-.84.59-1.07a1.23,1.23,0,0,1,1.06-.1,8.26,8.26,0,0,1,1.45,1,3,3,0,0,1,.82.72C81,35.64,82,36.76,81.9,38.5A13.17,13.17,0,0,0,82.39,41.51ZM75.92,41a15.6,15.6,0,0,1-.7-2c-.14-.72-.43-.92-1.1-.65-.38.16-.83.16-1.19.34s-.58.5-.53.66c.32,1,.73,2,1.13,3.07l2.25-1.21A.5.5,0,0,0,75.92,41Zm6.77,5.91.22-.46-.6-1.13-.44,0c-.12.39-.44.9-.3,1.14S82.3,46.76,82.69,46.91Z"/><path class="cls-5" d="M58.56,12.05,56,12.5c.48,1.26.26,1.78-1.19,1.57a7.2,7.2,0,0,0-2.81.37A6.68,6.68,0,0,1,47.84,14a11.14,11.14,0,0,1-2-.5c-.48-.26-1.07-.91-1.06-1.36a4,4,0,0,1,3.65-3.92A2.28,2.28,0,0,0,50.51,6.6a3.69,3.69,0,0,1,2.91-2.42,6.81,6.81,0,0,1,6.73,1.88,3.47,3.47,0,0,0,2.21.77A7.93,7.93,0,0,1,69.17,10a5.11,5.11,0,0,1-3.24,8.31c-2,.38-3.72,0-5-1.81-.4-.59-1.24-.93-1.56-1.54A14.75,14.75,0,0,1,58.56,12.05Z"/><path class="cls-5" d="M101,18.08a37.93,37.93,0,0,0,4-1.44c1.32-.63,2.12.26,2.86.87,1,.82,1.55,1,2.49-.06a3,3,0,0,1,3.88-.33,5.16,5.16,0,0,1,1.94,5.77,18.67,18.67,0,0,0-.78,3.79l-5.18-4.09c-1.94,1.22-3.63,2.33-5.36,3.36a1.24,1.24,0,0,1-1.09-.09c-2.07-1.51-3.42-3.59-2.67-6.41A4.53,4.53,0,0,0,101,18.08Z"/><path class="cls-5" d="M49.49,42.19a12.3,12.3,0,0,1,1.3.94,2.56,2.56,0,0,1-.73,4.5c-.74.31-1,.56-.81,1.43a1.8,1.8,0,0,1-1.15,2.11,2.74,2.74,0,0,1-3.2-.58,2,2,0,0,0-2.17-1A2.58,2.58,0,0,1,40,47.87a2.19,2.19,0,0,1,1.1-2.64,1.69,1.69,0,0,0,.56-.89c.48-1.57,1.71-2.58,3.26-2s3.07,0,4.59-.09Zm-3.25,3.6-.41-.33a3,3,0,0,0-.52,1c0,.26.22.75.43.8s.7-.13,1.17-.24Z"/><path class="cls-3" d="M23.46,29.19a2.4,2.4,0,0,1,1.3,3.42,1,1,0,0,1-.9.41c-.63-.13-1.15-.47-.94-1.3S23.28,30,23.46,29.19Z"/><path class="cls-1" d="M36.18,81.94C28.47,82,22.72,75.18,24.42,68c1.52-6.4,8.43-10.25,15.08-8.41a11.33,11.33,0,0,1,8.12,14.19A11.94,11.94,0,0,1,36.18,81.94ZM29.8,64.1a2.14,2.14,0,1,0,2.33,2.08A2.25,2.25,0,0,0,29.8,64.1Z"/><path class="cls-1" d="M106.46,78.62a12.49,12.49,0,0,1-9.08-3.89,10.21,10.21,0,0,1-.08-14.17,13.06,13.06,0,0,1,18.7,0,10.23,10.23,0,0,1-.72,14.86A12.81,12.81,0,0,1,106.46,78.62Zm-3.74-14.38a2.27,2.27,0,0,0-2.42-2.11,2.15,2.15,0,1,0,2.42,2.11Z"/><path class="cls-1" d="M65.77,79.3l.67,1c2.85,4.09,6.69,4.64,10.47,1.38A39.93,39.93,0,0,0,80.25,78c.26-.3.49-.62.74-.94l.36.12a3.71,3.71,0,0,1-.22,1.29,18,18,0,0,1-5.36,5.6,7,7,0,0,1-10.28-3.48,3.48,3.48,0,0,1,0-1.21Z"/><path class="cls-1" d="M54,139.67a5.45,5.45,0,0,1-5.31-4.27c-.15-.64-.35-1.27-.5-1.92a5.51,5.51,0,0,1,2-5.3s.06-.07.1-.07a20.81,20.81,0,0,1,4.6-.56,5.36,5.36,0,0,1,2.92,1.66,11.77,11.77,0,0,1,2.19,3.28c1.1,2.38-1,6.22-3.56,6.83C55.69,139.51,54.86,139.56,54,139.67Zm-3.71-10c-1.22,1.58-1.09,3.52-.29,5.51,1.14,2.84,3.59,3.78,6.35,2.43s3.29-3.08,1.57-6a8.27,8.27,0,0,0-.61-.93,3.79,3.79,0,0,0-5-1.39A15.91,15.91,0,0,1,50.33,129.69Z"/><path class="cls-1" d="M86.7,134.92a5.41,5.41,0,0,1-5.3-4.23c-.13-.56-.31-1.12-.43-1.68a5.4,5.4,0,0,1,1.89-5.46c.06-.06.12-.14.19-.15a19.32,19.32,0,0,1,4.73-.52c1.09.14,2.08,1.19,3.08,1.9a4.35,4.35,0,0,1,.76,1,5.29,5.29,0,0,1,.59,6.33C91,134.33,89,134.93,86.7,134.92ZM83,125c-1.4,1.83-1.1,4,0,6.16,1.22,2.47,3.71,3.09,6.34,1.69s3-2.93,1.46-5.63a8.66,8.66,0,0,0-.89-1.34,3.72,3.72,0,0,0-4.82-1.29A14.6,14.6,0,0,1,83,125Z"/><path class="cls-1" d="M104.61,120.35c1.52,4.09,4.67,5.87,7.68,7.78l.36-.17c-.63-2.17-1.25-4.34-1.88-6.51-.06-.24-.29-.48-.25-.68a7.14,7.14,0,0,1,.44-1.25c.3.26.78.46.89.79.74,2.28,1.42,4.59,2.08,6.9a3.66,3.66,0,0,1,.15,1.57c-.21,1.12-.92,1.45-1.88.85-2.19-1.39-4.34-2.85-6.39-4.2.19,1.51.36,3.32.67,5.1.11.65,0,1-.6,1.06a1.1,1.1,0,0,1-.83-.69c-.54-2.88-1-5.78-1.44-8.69C103.55,121.74,104.14,121.19,104.61,120.35Z"/><path class="cls-1" d="M97.4,127.93c1.71.54,3.2,1,4.69,1.5a2.2,2.2,0,0,1,.88.43,5,5,0,0,1,.6,1,2.88,2.88,0,0,1-1.08.07c-1.88-.6-3.74-1.27-5.86-2l.28,1.79a3.51,3.51,0,0,1,.19,1.08,5.33,5.33,0,0,1-.52,1.21c-.27-.32-.68-.59-.78-.95-.28-.95-.42-1.94-.62-2.91s-.37-2-.59-2.92c-.06-.27-.17-.66-.35-.73-1.19-.44-.85-1.26-.51-2,1.26-2.85,4.14-4,6.59-2.55a3,3,0,0,1,.2,5.37C99.58,126.86,98.57,127.31,97.4,127.93ZM95.31,124a13.75,13.75,0,0,0,.54,2.15c.1.28.73.63,1,.54a18.62,18.62,0,0,0,3.21-1.55,2.24,2.24,0,0,0,.88-1.4c.18-.92-1.33-2.27-2.38-2.26C96.8,121.5,95.27,122.58,95.31,124Z"/><path class="cls-1" d="M63.57,133.15a24.5,24.5,0,0,1,.35,2.86c0,.38-.37.77-.57,1.16-.34-.32-.85-.57-1-1-.4-1.17,0-2.53-1-3.6-.21-.22.26-1,.23-1.46,0-1-.24-1.89-.37-2.83a3.64,3.64,0,0,1,3.47-3.83c1.57.12,3.07.61,3.77,2.2a4,4,0,0,1-.81,4.5,4,4,0,0,1-3,1.69A4.64,4.64,0,0,0,63.57,133.15Zm.61-1.6a3.13,3.13,0,0,0,2.92-2,2.4,2.4,0,0,0-.34-2.94,2.54,2.54,0,0,0-3.48-.26c-.42.38-1,1-.92,1.46a21.71,21.71,0,0,0,1.12,3.63C63.51,131.57,63.94,131.53,64.18,131.55Z"/><path class="cls-1" d="M41.6,136.24a26.37,26.37,0,0,1,.32,2.91c0,.38-.36.77-.56,1.16-.33-.32-.82-.59-1-1-.42-1.12-.7-2.29-1-3.45a1.1,1.1,0,0,1-.07-.36c0-1.37.05-2.74-.1-4.1A3.71,3.71,0,0,1,43,127.67c2.49.37,3.83,1.75,3.82,4A5.05,5.05,0,0,1,42.92,136Zm3.91-4.66a2.74,2.74,0,0,0-3.34-2.51c-1,.26-2,1.39-1.82,2.14.22,1,.49,1.92.8,2.86a1.05,1.05,0,0,0,.59.63A3.59,3.59,0,0,0,45.51,131.58Z"/><path class="cls-1" d="M80.55,133.39c-.15.43-.16,1.05-.47,1.27A7.5,7.5,0,0,1,74,136.11a4.1,4.1,0,0,1-3.12-2.58,7,7,0,0,1,.73-6.63A4.45,4.45,0,0,1,76,125.3a3.19,3.19,0,0,1,1.42,1.52c.14.26-.28.82-.55,1.51-1-2.25-2.42-2.46-3.94-.94a5.52,5.52,0,0,0-.76,5.92c.88,1.46,3.6,2,5.53,1.09.84-.4,1.66-.84,2.49-1.26Z"/><path class="cls-1" d="M36,36.34l-3.44-.42a4.4,4.4,0,0,0,.75-.62c.8-1,1.55-2,2.36-3,.26-.32.74-.81,1-.74a3.28,3.28,0,0,1,1.46,1c.13.17-.18.79-.39,1.14C37.21,34.62,36.61,35.49,36,36.34Z"/><path class="cls-1" d="M54.32,41.41l-2.61-.9c.53-1,1-1.95,1.51-2.84.1-.17.59-.23.83-.14s.58.46.92.6c.82.36.93.76.33,1.48A10.09,10.09,0,0,0,54.32,41.41Z"/><path class="cls-1" d="M17,39.66l-2.73.48A25,25,0,0,1,14.32,37c0-.22.8-.48,1.23-.48s1.37-.32,1.44.68C17,38,17,38.74,17,39.66Z"/><path class="cls-1" d="M47.64,22.83a6.66,6.66,0,0,1,1.91-1c1.58-.24.87,1.67,1.79,2.12-.21.27-.36.64-.64.79a3.17,3.17,0,0,1-1.29.38,1,1,0,0,1-.77-.33A21.32,21.32,0,0,1,47.64,22.83Z"/><path class="cls-1" d="M26.17,44.88l-.89,1.3-1-.76L25,44.3Z"/><path class="cls-1" d="M93.89,28.62,91.5,30c-.42-1.07-.83-2.05-1.14-3.05,0-.17.27-.57.51-.69a9.08,9.08,0,0,1,1.19-.34c.67-.26,1-.08,1.1.65A16.61,16.61,0,0,0,93.89,28.62Z"/><path class="cls-1" d="M92.43,10.79c.73-.12,1.49-.28,2.25-.35a.77.77,0,0,1,.6.46A10.38,10.38,0,0,1,95.54,13c0,.21-.35.55-.59.59a3.31,3.31,0,0,1-1.47,0,1.28,1.28,0,0,1-.68-.77A16.49,16.49,0,0,1,92.43,10.79Z"/><path class="cls-1" d="M89.88,41.9l1.34-2c1.65.71,1.71,1,.62,3Z"/><path class="cls-1" d="M81.47,14.64l1.6,1.44L82,17.94,80.1,16.88Z"/><path class="cls-1" d="M88.43,17.58l-3.14-1.51C86.31,16.68,88.18,15.4,88.43,17.58Z"/><path class="cls-1" d="M88,24.88c-1.25,1.1-2,1.11-2.94,0Z"/><path class="cls-1" d="M105.78,38.55a3.8,3.8,0,0,1,0-.59c.43-2.22.42-2.19,2.61-1.79.86.16,1,.46.7,1.25-.39,1-.72,1.95-2.12,1.16C106.7,38.42,106.26,38.55,105.78,38.55Z"/><path class="cls-1" d="M117.25,34.93l-1,1.41c-.32-.3-.71-.51-.82-.81a.9.9,0,0,1,.45-.79A4,4,0,0,1,117.25,34.93Z"/><path class="cls-1" d="M126.88,34.43l-2.13-1.79,2.19-2.47c.57.75,1.48,1.42,1.49,2.09S127.52,33.6,126.88,34.43Z"/><path class="cls-1" d="M70.65,27.48c-1.15-.28-2.08-.46-3-.76a1,1,0,0,1-.42-.81,8.8,8.8,0,0,1,.41-1.15c.18-.78.54-1,1.22-.53a1.48,1.48,0,0,0,.33.17c.56.19,1.53.29,1.59.59A9,9,0,0,1,70.65,27.48Z"/><path class="cls-1" d="M75.92,41a.5.5,0,0,1-.14.16l-2.25,1.21c-.4-1-.81-2-1.13-3.07-.05-.16.29-.54.53-.66s.81-.18,1.19-.34c.67-.27,1-.07,1.1.65A15.6,15.6,0,0,0,75.92,41Z"/><path class="cls-1" d="M82.69,46.91c-.39-.15-1-.2-1.12-.49s.18-.75.3-1.14l.44,0,.6,1.13Z"/><path class="cls-1" d="M46.24,45.79,46.91,47c-.47.11-.85.32-1.17.24s-.46-.54-.43-.8a3,3,0,0,1,.52-1Z"/><path class="cls-3" d="M29.8,64.1a2.14,2.14,0,1,1-2.35,2.06A2.25,2.25,0,0,1,29.8,64.1Z"/><path class="cls-3" d="M102.72,64.24a2.22,2.22,0,0,1-2.24,2.17,2.15,2.15,0,1,1,2.24-2.17Z"/><path class="cls-3" d="M50.33,129.69a15.91,15.91,0,0,0,2-.41,3.79,3.79,0,0,1,5,1.39,8.27,8.27,0,0,1,.61.93c1.72,3,1.28,4.63-1.57,6S51.18,138,50,135.2C49.24,133.21,49.11,131.27,50.33,129.69Z"/><path class="cls-3" d="M83,125a14.6,14.6,0,0,0,2.06-.41,3.72,3.72,0,0,1,4.82,1.29,8.66,8.66,0,0,1,.89,1.34c1.49,2.7,1.08,4.27-1.46,5.63s-5.12.78-6.34-1.69C81.94,129,81.64,126.78,83,125Z"/><path class="cls-3" d="M95.31,124c0-1.42,1.49-2.5,3.2-2.52,1,0,2.56,1.34,2.38,2.26a2.24,2.24,0,0,1-.88,1.4,18.62,18.62,0,0,1-3.21,1.55c-.22.09-.85-.26-1-.54A13.75,13.75,0,0,1,95.31,124Z"/><path class="cls-3" d="M64.18,131.55c-.24,0-.67,0-.7-.07a21.71,21.71,0,0,1-1.12-3.63c-.07-.43.5-1.08.92-1.46a2.54,2.54,0,0,1,3.48.26,2.4,2.4,0,0,1,.34,2.94A3.13,3.13,0,0,1,64.18,131.55Z"/><path class="cls-3" d="M45.51,131.58a3.59,3.59,0,0,1-3.77,3.12,1.05,1.05,0,0,1-.59-.63c-.31-.94-.58-1.9-.8-2.86-.18-.75.82-1.88,1.82-2.14A2.74,2.74,0,0,1,45.51,131.58Z"/></g></g></g></g></svg>