<svg xmlns="http://www.w3.org/2000/svg" viewBox="0 0 125.96 145.94"><defs><style>.cls-1{fill:#4a186e;}</style></defs><title>Asset 2</title><g id="Layer_2" data-name="Layer 2"><g id="rokuKids"><g id="music"><g id="_5RhcJf.tif" data-name="5RhcJf.tif"><path class="cls-1" d="M17,145.94c-2.13-.79-4.32-1.45-6.38-2.4C-.5,138.37-3.46,126,4.48,116.57c7.59-9,17.54-11.68,28.93-9.66,1.05.18,2.09.44,3.57.76v-4.55c0-27.61.07-55.21,0-82.82,0-2.87.77-4.25,3.55-5.3a225.44,225.44,0,0,1,82.7-15c.72,0,1.43.07,2.75.14V104.4c0,14.21-9.26,24.24-23.52,25.5-5.55.49-10.91,0-15.91-2.78-9.84-5.4-12.51-16.49-5.65-25.41,7.17-9.34,17-12.44,28.48-10.81,1.41.2,2.8.58,4.34.9V41.08c-8,1-15.76,1.39-23.33,2.88C77.52,46.48,64.8,49.69,52,52.55c-2.39.53-3.29,1.65-3.28,4.24q.21,33.2.14,66.4c0,9.71-5.76,15.66-13.88,19.69a73.35,73.35,0,0,1-8.46,3.06Z"/></g></g></g></g></svg>