<svg xmlns="http://www.w3.org/2000/svg" viewBox="0 0 155.24 179.17"><defs><style>.cls-1{fill:#4a186e;}.cls-2{fill:#768ebc;}.cls-3{fill:#00aaad;}</style></defs><title>Asset 3</title><g id="Layer_2" data-name="Layer 2"><g id="rokuKids"><g id="tv"><g id="qDuE7r.tif"><path class="cls-1" d="M130.36,175.59v3.58H26.11l-.18-3.53a80.56,80.56,0,0,1-8.51-1.12A22.75,22.75,0,0,1,.14,153.23c-.24-10.66-.1-21.32-.1-32Q0,100.13,0,79c0-13.77,10.07-23.8,23.88-23.8h43A7.74,7.74,0,0,1,70.7,48L53.49,31.47Q42.32,20.75,31.13,10c-2.56-2.45-2.77-6-.56-8.29s5.72-2.3,8.28.16q19.31,18.48,38.58,37c.27.26.55.52.42.27,3.87-3.59,7.88-7,11.59-10.8C97.71,20,105.83,11.51,114,3.1a5.66,5.66,0,0,1,7.06-1.23A5.25,5.25,0,0,1,123.71,8a9.37,9.37,0,0,1-2.23,3.52Q104.32,29.25,87.07,46.94c-.22.22-.4.48-.71.85,2.55,1.81,4.57,3.9,4.26,7.42h41.09A23.14,23.14,0,0,1,155,75.11a22.3,22.3,0,0,1,.2,3.47q0,36.44,0,72.87c0,11.42-7.12,20.66-17.91,23.23C135.15,175.19,132.88,175.27,130.36,175.59ZM77.43,160.27h5.23c12,0,24,0,36,0,9.67,0,17.35-7.22,17.44-16.8q.26-28.47,0-57c-.07-8.91-8-16.75-16.85-16.78q-41.65-.14-83.32,0A17,17,0,0,0,19.14,86.4c-.16,18.79-.21,37.59-.05,56.38.09,10.69,7.33,17.48,18,17.49Zm39.3,9.21a5.32,5.32,0,0,0,5.48,5.46,5.45,5.45,0,1,0-.16-10.89A5.32,5.32,0,0,0,116.73,169.48Z"/><path class="cls-2" d="M77.43,160.27H37.12c-10.7,0-17.94-6.8-18-17.49-.16-18.79-.11-37.59.05-56.38A17,17,0,0,1,36,69.72q41.67-.14,83.32,0c8.87,0,16.78,7.87,16.85,16.78q.23,28.48,0,57c-.09,9.58-7.77,16.77-17.44,16.8-12,0-24,0-36,0Z"/><path class="cls-3" d="M116.73,169.48a5.32,5.32,0,0,1,5.32-5.43,5.45,5.45,0,1,1,.16,10.89A5.32,5.32,0,0,1,116.73,169.48Z"/></g></g></g></g></svg>